<?xml version="1.0" standalone="no"?>
<!DOCTYPE svg PUBLIC "-//W3C//DTD SVG 20010904//EN"
 "http://www.w3.org/TR/2001/REC-SVG-20010904/DTD/svg10.dtd">
<svg version="1.0" xmlns="http://www.w3.org/2000/svg"
 width="260.000000pt" height="260.000000pt" viewBox="0 0 260.000000 260.000000"
 preserveAspectRatio="xMidYMid meet">
<metadata>
Created by potrace 1.11, written by Peter Selinger 2001-2013
</metadata>
<g transform="translate(0.000000,260.000000) scale(0.100000,-0.100000)"
fill="#000000" stroke="none">
<path d="M0 1300 l0 -1300 1300 0 1300 0 0 1300 0 1300 -1300 0 -1300 0 0
-1300z m1960 -10 l0 -651 -112 3 -113 3 -3 648 -2 647 115 0 115 0 0 -650z
m-490 479 c47 -12 89 -25 93 -29 5 -4 -57 -251 -137 -550 -80 -298 -146 -543
-146 -545 0 -4 -211 52 -215 57 -1 2 63 249 144 550 117 439 149 547 161 543
8 -2 53 -14 100 -26z m-388 -196 l66 -38 -254 -440 c-140 -242 -258 -441 -264
-443 -5 -2 -51 20 -100 48 l-91 52 26 46 c15 26 131 228 258 449 l232 402 30
-19 c16 -10 60 -36 97 -57z"/>
</g>
</svg>
